<svg width="1925" height="425" viewBox="0 0 1925 425" fill="none" xmlns="http://www.w3.org/2000/svg">
<path d="M1366.79 253.757C1486.02 169.791 1712.16 144.041 1821.87 166.939C1931.59 189.837 1966.88 263.296 1915.37 355.84C1881.86 416.031 1775.67 451.923 1749.51 459.994C1745.91 461.103 1742.04 459.994 1739.5 457.222L1717.04 432.728C1714.68 430.15 1715.61 425.979 1718.81 424.586C1748.64 411.635 1868.03 355.658 1857.17 293.827C1847.01 235.959 1758.9 223.226 1712.16 253.757C1612.86 318.613 1621.58 455.649 1684.49 556.191C1723.74 618.916 1776.81 674.025 1828.03 718.645C1936.21 591.934 2030.99 483.075 2163.68 332.943C2192.3 293.821 2221.88 327.213 2189.44 362.518C2062.46 523.815 1971.51 634.981 1869.79 753.211C1934.67 804.319 1988.71 835.64 1995.51 840.498C2008.87 850.04 2001.66 855.385 1982.15 858.625C1941.13 860.635 1884.35 842.812 1820.44 810.158C1780.16 856.354 1737.26 904.867 1689.2 958.807C1687.52 960.682 1685.69 962.461 1683.75 964.064L1592.45 1039.76C1589 1042.61 1584.19 1038.53 1586.44 1034.66L1642.5 938.668C1643.95 936.189 1645.64 933.8 1647.49 931.606C1693.02 877.633 1734.07 829.101 1772.61 783.731C1697.14 739.05 1615.28 677.024 1539.47 604.846C1539.47 604.846 1480.32 633.468 1487.95 820.463C1489.18 850.412 1487.87 886.127 1444.07 883.431C1382.05 879.613 1395.61 817.599 1390.64 770.851C1385.66 724.102 1394.92 543.19 1436.43 364.426C1442.41 338.667 1453.6 306.228 1416.4 309.091C1381.45 311.781 1364.88 338.666 1352.48 374.921C1344.01 399.674 1334.75 408.312 1308.59 408.312C1275.25 408.312 1263.8 326.288 1366.79 253.757ZM1564.32 -37.2361C1588.28 -81.8691 1647.57 -112.814 1693.13 -90.6609C1724.61 -75.3506 1729.39 -23.8788 1709.34 20.008C1685.43 72.365 1629.84 119.737 1577.69 95.3762C1527.63 71.9914 1538.19 11.4469 1564.32 -37.2361Z" fill="url(#paint0_linear_2154_25)"/>
<path d="M81.7891 -280.243C201.019 -364.209 427.156 -389.959 536.872 -367.061C646.588 -344.163 681.883 -270.704 630.369 -178.16C596.864 -117.969 490.672 -82.0768 464.508 -74.0057C460.914 -72.897 457.039 -74.0055 454.497 -76.7781L432.045 -101.272C429.682 -103.85 430.606 -108.021 433.814 -109.414C463.638 -122.365 583.03 -178.342 572.172 -240.173C562.01 -298.041 473.9 -310.774 427.156 -280.243C327.859 -215.387 336.579 -78.3509 399.488 22.1906C438.736 84.9161 491.808 140.025 543.029 184.645C651.213 57.9345 745.987 -50.9247 878.682 -201.057C907.303 -240.179 936.879 -206.787 904.441 -171.482C777.463 -10.1845 686.513 100.981 584.787 219.211C649.671 270.319 703.707 301.64 710.509 306.498C723.866 316.04 716.658 321.385 697.152 324.625C656.131 326.635 599.347 308.812 535.444 276.158C495.156 322.354 452.256 370.867 404.195 424.807C402.524 426.682 400.686 428.461 398.752 430.064L307.448 505.76C304.005 508.615 299.186 504.526 301.441 500.663L357.503 404.668C358.951 402.189 360.642 399.8 362.493 397.606C408.024 343.633 449.069 295.101 487.607 249.731C412.137 205.05 330.278 143.024 254.468 70.8459C254.468 70.8459 195.317 99.4679 202.954 286.463C204.177 316.412 202.871 352.127 159.067 349.431C97.0496 345.613 110.609 283.599 105.636 236.851C100.663 190.102 109.915 9.19027 151.431 -169.574C157.413 -195.333 168.599 -227.772 131.396 -224.909C96.4507 -222.219 79.8766 -195.334 67.4785 -159.079C59.0138 -134.326 49.7541 -125.688 23.5938 -125.688C-9.7483 -125.688 -21.2022 -207.712 81.7891 -280.243ZM279.321 -571.236C303.278 -615.869 362.571 -646.814 408.126 -624.661C439.61 -609.351 444.387 -557.879 424.345 -513.992C400.434 -461.635 344.836 -414.263 292.687 -438.624C242.627 -462.009 253.191 -522.553 279.321 -571.236Z" fill="url(#paint1_linear_2154_25)"/>
<defs>
<linearGradient id="paint0_linear_2154_25" x1="589.498" y1="-1271.7" x2="2259.21" y2="811.195" gradientUnits="userSpaceOnUse">
<stop stop-color="#1A5D77"/>
<stop offset="1" stop-color="#143045"/>
</linearGradient>
<linearGradient id="paint1_linear_2154_25" x1="1536.5" y1="1364" x2="-141.891" y2="-173.102" gradientUnits="userSpaceOnUse">
<stop stop-color="#1A5D77"/>
<stop offset="1" stop-color="#143045"/>
</linearGradient>
</defs>
</svg>
